<svg width="100" height="100" viewBox="0 0 100 100" fill="none" xmlns="http://www.w3.org/2000/svg">
<mask id="path-1-outside-1_149_195" maskUnits="userSpaceOnUse" x="7.60577" y="7.63062" width="84" height="84" fill="black">
<rect fill="white" x="7.60577" y="7.63062" width="84" height="84"/>
<path fill-rule="evenodd" clip-rule="evenodd" d="M74.7451 72.0597C79.9904 66.1765 83.178 58.4189 83.178 49.9167C83.178 31.5333 68.2753 16.6306 49.8919 16.6306C31.5085 16.6306 16.6058 31.5333 16.6058 49.9167C16.6058 68.3002 31.5085 83.2029 49.8919 83.2029C56.2155 83.2029 62.1273 81.4395 67.1623 78.3777L76.5314 80.3874L74.7451 72.0597Z"/>
</mask>
<path d="M74.7451 72.0597L68.5384 66.5259L65.7294 69.6765L66.6147 73.8037L74.7451 72.0597ZM67.1623 78.3777L68.9063 70.2473L65.6699 69.5531L62.8418 71.2729L67.1623 78.3777ZM76.5314 80.3874L74.7874 88.5178L87.3583 91.2143L84.6618 78.6434L76.5314 80.3874ZM74.8627 49.9167C74.8627 56.3003 72.4782 62.1071 68.5384 66.5259L80.9517 77.5934C87.5026 70.2459 91.4934 60.5374 91.4934 49.9167H74.8627ZM49.8919 24.9459C63.6829 24.9459 74.8627 36.1257 74.8627 49.9167H91.4934C91.4934 26.9409 72.8678 8.3153 49.8919 8.3153V24.9459ZM24.9211 49.9167C24.9211 36.1257 36.1009 24.9459 49.8919 24.9459V8.3153C26.9161 8.3153 8.29046 26.9409 8.29046 49.9167H24.9211ZM49.8919 74.8876C36.1009 74.8876 24.9211 63.7077 24.9211 49.9167H8.29046C8.29046 72.8926 26.9161 91.5182 49.8919 91.5182V74.8876ZM62.8418 71.2729C59.0719 73.5654 54.649 74.8876 49.8919 74.8876V91.5182C57.782 91.5182 65.1826 89.3136 71.4828 85.4824L62.8418 71.2729ZM65.4183 86.508L74.7874 88.5178L78.2754 72.257L68.9063 70.2473L65.4183 86.508ZM84.6618 78.6434L82.8755 70.3157L66.6147 73.8037L68.4011 82.1314L84.6618 78.6434Z" fill="current" mask="url(#path-1-outside-1_149_195)"/>
</svg>
