<svg width="26" height="27" viewBox="0 0 26 27" fill="none" fill-opacity="0.6" xmlns="http://www.w3.org/2000/svg">
<path d="M9.11067 23.9494V20.2115C9.11067 19.2573 9.88985 18.4838 10.851 18.4838H14.3645C14.8261 18.4838 15.2688 18.6659 15.5952 18.9899C15.9215 19.3139 16.1049 19.7533 16.1049 20.2115V23.9494C16.102 24.3461 16.2587 24.7276 16.5402 25.0091C16.8217 25.2906 17.2048 25.449 17.6044 25.449H20.0015C21.1211 25.4518 22.1957 25.0124 22.9884 24.2275C23.781 23.4426 24.2265 22.3769 24.2265 21.2655V10.6168C24.2265 9.71906 23.8256 8.86748 23.132 8.2915L14.9775 1.82621C13.559 0.69263 11.5266 0.72923 10.1505 1.91314L2.18212 8.2915C1.45566 8.8505 1.02146 9.70461 1 10.6168V21.2547C1 23.5711 2.89159 25.449 5.22499 25.449H7.56735C8.39731 25.449 9.07182 24.7842 9.07783 23.9603L9.11067 23.9494Z" fill="current" stroke="current" stroke-width="3"/>
</svg>
