<svg width="85" height="85" viewBox="0 0 85 85" fill="current" xmlns="http://www.w3.org/2000/svg">
<path d="M5.69108 37.2674L2.91558 34.1718L2.91557 34.1718L5.69108 37.2674ZM34.1473 79.8874V84.0451H38.3049V79.8874H34.1473ZM50.803 79.8874H46.6453V84.0451H50.803V79.8874ZM79.2597 37.2674L82.0352 34.1718L82.0352 34.1718L79.2597 37.2674ZM43.8631 5.53103L46.6386 2.43543L46.6386 2.43543L43.8631 5.53103ZM41.0876 5.53103L43.8631 8.62663L43.8631 8.62662L41.0876 5.53103ZM9.15766 38.8152C9.15766 39.4059 8.90637 39.9687 8.46659 40.363L2.91557 34.1718C1.59619 35.3548 0.842342 37.0432 0.842342 38.8152H9.15766ZM9.15766 77.8086V38.8152H0.842342V77.8086H9.15766ZM7.07883 75.7297C8.22694 75.7297 9.15766 76.6605 9.15766 77.8086H0.842342C0.842342 81.2529 3.63451 84.0451 7.07883 84.0451V75.7297ZM34.1473 75.7297H7.07883V84.0451H34.1473V75.7297ZM38.3049 79.8874V59.0686H29.9896V79.8874H38.3049ZM38.3049 59.0686C38.3049 56.7654 40.172 54.8983 42.4751 54.8983V46.583C35.5795 46.583 29.9896 52.173 29.9896 59.0686H38.3049ZM42.4751 54.8983C44.7783 54.8983 46.6453 56.7654 46.6453 59.0686H54.9606C54.9606 52.173 49.3707 46.583 42.4751 46.583V54.8983ZM46.6453 59.0686V79.8874H54.9606V59.0686H46.6453ZM77.8719 75.7297H50.803V84.0451H77.8719V75.7297ZM75.7931 77.8086C75.7931 76.6605 76.7238 75.7297 77.8719 75.7297V84.0451C81.3163 84.0451 84.1084 81.2529 84.1084 77.8086H75.7931ZM75.7931 38.8152V77.8086H84.1084V38.8152H75.7931ZM76.4842 40.363C76.0444 39.9687 75.7931 39.406 75.7931 38.8152H84.1084C84.1084 37.0431 83.3545 35.3548 82.0352 34.1718L76.4842 40.363ZM41.0876 8.62663L76.4842 40.363L82.0352 34.1718L46.6386 2.43543L41.0876 8.62663ZM43.8631 8.62662C43.0734 9.33468 41.8773 9.33466 41.0876 8.62663L46.6386 2.43543C44.2695 0.31132 40.6812 0.311303 38.3121 2.43544L43.8631 8.62662ZM8.46658 40.363L43.8631 8.62663L38.3121 2.43543L2.91558 34.1718L8.46658 40.363Z"/>
</svg>
