<svg width="100" height="100" viewBox="0 0 100 100" fill="current" xmlns="http://www.w3.org/2000/svg">
<path fill-rule="evenodd" clip-rule="evenodd" d="M16.6306 45.7343C16.6306 29.6609 29.6607 16.6307 45.7342 16.6307C61.8077 16.6307 74.8378 29.6609 74.8378 45.7343C74.8378 61.8078 61.8077 74.838 45.7342 74.838C29.6607 74.838 16.6306 61.8078 16.6306 45.7343ZM45.7342 8.31543C25.0683 8.31543 8.31531 25.0685 8.31531 45.7343C8.31531 66.4002 25.0683 83.1533 45.7342 83.1533C55.658 83.1533 64.6795 79.2901 71.3769 72.9857C71.5265 73.2097 71.7002 73.4224 71.8979 73.6202L88.5286 90.2508C90.1522 91.8745 92.7847 91.8745 94.4084 90.2508C96.032 88.6272 96.032 85.9947 94.4084 84.371L77.7777 67.7404C77.423 67.3857 77.0201 67.1084 76.5901 66.9087C80.73 60.8874 83.1531 53.5938 83.1531 45.7343C83.1531 25.0685 66.4001 8.31543 45.7342 8.31543Z"/>
</svg>
