<svg width="100" height="100" viewBox="0 0 100 100" fill="current" xmlns="http://www.w3.org/2000/svg">
<path fill-rule="evenodd" clip-rule="evenodd" d="M33.2613 8.31543C19.484 8.31543 8.31531 19.4841 8.31531 33.2614V66.5226C8.31531 80.2999 19.484 91.4686 33.2612 91.4686H66.5225C80.2998 91.4686 91.4685 80.2999 91.4685 66.5227V33.2614C91.4685 19.4841 80.2998 8.31543 66.5225 8.31543H33.2613ZM16.6306 33.2614C16.6306 24.0765 24.0764 16.6307 33.2613 16.6307H66.5225C75.7074 16.6307 83.1531 24.0765 83.1531 33.2614V66.5227C83.1531 75.7075 75.7074 83.1533 66.5225 83.1533H33.2612C24.0764 83.1533 16.6306 75.7075 16.6306 66.5226V33.2614ZM54.0495 33.2614C54.0495 30.9652 52.1881 29.1037 49.8919 29.1037C47.5957 29.1037 45.7342 30.9652 45.7342 33.2614V45.7343H33.2613C30.965 45.7343 29.1036 47.5958 29.1036 49.892C29.1036 52.1882 30.965 54.0497 33.2613 54.0497H45.7342V66.5226C45.7342 68.8188 47.5957 70.6803 49.8919 70.6803C52.1881 70.6803 54.0495 68.8188 54.0495 66.5226V54.0497H66.5225C68.8187 54.0497 70.6802 52.1882 70.6802 49.892C70.6802 47.5958 68.8187 45.7343 66.5225 45.7343H54.0495V33.2614Z"/>
</svg>
