<svg width="100" height="100" viewBox="0 0 100 100" fill="none" xmlns="http://www.w3.org/2000/svg">
<path fill-rule="evenodd" clip-rule="evenodd" d="M49.8919 12.473C29.2261 12.473 12.473 29.2261 12.473 49.8919C12.473 59.8129 16.3339 68.832 22.6351 75.5288C25.3996 70.1794 30.9822 66.5226 37.419 66.5226H62.3649C68.8017 66.5226 74.3843 70.1794 77.1488 75.5288C83.45 68.832 87.3109 59.8129 87.3109 49.8919C87.3109 29.2261 70.5578 12.473 49.8919 12.473ZM70.4418 81.168C69.5517 77.5341 66.2732 74.8379 62.3649 74.8379H37.419C33.5107 74.8379 30.2322 77.5342 29.3421 81.168C35.2403 85.0512 42.3022 87.3109 49.8919 87.3109C57.4817 87.3109 64.5436 85.0512 70.4418 81.168ZM4.15771 49.8919C4.15771 24.6336 24.6336 4.15771 49.8919 4.15771C75.1503 4.15771 95.6262 24.6336 95.6262 49.8919C95.6262 75.1503 75.1503 95.6262 49.8919 95.6262C24.6336 95.6262 4.15771 75.1503 4.15771 49.8919ZM49.8919 29.1037C43.0033 29.1037 37.419 34.688 37.419 41.5766C37.419 48.4653 43.0033 54.0496 49.8919 54.0496C56.7806 54.0496 62.3649 48.4653 62.3649 41.5766C62.3649 34.688 56.7806 29.1037 49.8919 29.1037ZM29.1037 41.5766C29.1037 30.0956 38.4109 20.7883 49.8919 20.7883C61.373 20.7883 70.6802 30.0956 70.6802 41.5766C70.6802 53.0577 61.373 62.3649 49.8919 62.3649C38.4109 62.3649 29.1037 53.0577 29.1037 41.5766Z" fill="black"/>
</svg>
